<svg xmlns="http://www.w3.org/2000/svg" viewBox="0 0 256 256">
  <defs>
    <linearGradient id="grad1" x1="0%" y1="0%" x2="100%" y2="100%">
      <stop offset="0%" style="stop-color:#2563eb;stop-opacity:1" />
      <stop offset="100%" style="stop-color:#10b981;stop-opacity:1" />
    </linearGradient>
  </defs>
  <circle cx="100" cy="140" r="70" fill="#ffffff" stroke="url(#grad1)" stroke-width="4"/>
  <path d="M100 75 L100 95 L85 105 L70 95 L75 75 Z" fill="url(#grad1)"/>
  <path d="M100 95 L115 105 L110 125 L90 125 L85 105 Z" fill="url(#grad1)"/>
  <path d="M115 105 L130 95 L145 110 L135 125 L110 125 Z" fill="url(#grad1)"/>
  <path d="M70 95 L55 110 L55 130 L70 140 L85 125 L85 105 Z" fill="url(#grad1)"/>
  <path d="M130 95 L145 85 L160 100 L160 120 L145 110 Z" fill="url(#grad1)"/>
  <polyline points="140,180 160,140 180,150 200,110 220,120 240,70" fill="none" stroke="#10b981" stroke-width="6" stroke-linecap="round" stroke-linejoin="round"/>
  <polygon points="240,70 230,85 225,70 240,70" fill="#10b981"/>
</svg>